<svg id="Capa_1" enable-background="new 0 0 512 512" height="512" viewBox="0 0 512 512" width="512" xmlns="http://www.w3.org/2000/svg"><g><path d="m366 90h-110c-8.284 0-15-6.716-15-15 0-41.355 33.645-75 75-75h110c8.284 0 15 6.716 15 15 0 41.355-33.645 75-75 75z" fill="#ff6378"/><g><g><path d="m426 0h-110c-24.508 0-46.306 11.818-60 30.052v59.948h110c41.355 0 75-33.645 75-75 0-8.284-6.716-15-15-15z" fill="#d0004f"/></g></g><g><path d="m256 512c-1.785 0-3.569-.318-5.267-.955l-160-60c-5.855-2.195-9.733-7.792-9.733-14.045v-202c0-96.495 78.504-175 175-175 96.495 0 175 78.505 175 175v202c0 6.253-3.879 11.85-9.733 14.045l-160 60c-1.698.637-3.483.955-5.267.955z" fill="#f9f9f9"/></g><g><path d="m256 60v452c1.784 0 3.569-.318 5.267-.955l160-60c5.854-2.195 9.733-7.792 9.733-14.045v-202c0-96.495-78.505-175-175-175z" fill="#eaf1ff"/></g><path d="m456 317-200 90-200-90v-60l200-90 200 90z" fill="#6b61b1"/><g><path d="m256 167v240l200-90v-60z" fill="#453d81"/></g><path d="m462.155 243.321-191.155-86.02v-20.301c0-8.284-6.716-15-15-15s-15 6.716-15 15v20.301l-191.155 86.02c-5.383 2.422-8.845 7.777-8.845 13.679v60c0 5.902 3.462 11.257 8.845 13.679l200 90c1.957.881 4.056 1.321 6.155 1.321s4.198-.44 6.155-1.321l200-90c5.383-2.422 8.845-7.777 8.845-13.679v-60c0-5.902-3.462-11.257-8.845-13.679zm-354.488 80.48-36.667-16.5v-40.602l36.667-16.5zm66.666 30-36.667-16.5v-100.602l36.667-16.5zm66.667 30-36.667-16.5v-160.602l36.667-16.5zm66.666-16.5-36.666 16.5v-193.602l36.666 16.5zm66.667-30-36.667 16.5v-133.602l36.667 16.5zm66.667-30-36.667 16.5v-73.602l36.667 16.5z" fill="#eaf1ff"/><g><path d="m462.155 243.321-191.155-86.02v-20.301c0-8.284-6.716-15-15-15v300c2.099 0 4.198-.44 6.155-1.321l200-90c5.383-2.422 8.845-7.777 8.845-13.679v-60c0-5.902-3.462-11.257-8.845-13.679zm-154.489 123.98-36.666 16.5v-193.602l36.666 16.5zm66.667-30-36.667 16.5v-133.602l36.667 16.5zm66.667-30-36.667 16.5v-73.602l36.667 16.5z" fill="#d5e7ff"/></g></g></svg>