<svg width="165" height="36" viewBox="0 0 165 36" fill="none" xmlns="http://www.w3.org/2000/svg">
<path d="M49.54 25H46.14V13.54H42.44V10.72H53.24V13.54H49.54V25ZM61.2992 25H54.3592V23.06L56.1192 22.32V13.4L54.3592 12.66V10.72H61.2992V12.66L59.5392 13.4V22.32L61.2992 23.06V25ZM69.7609 25L66.5609 14.22H66.4809C66.4943 14.4867 66.5143 14.8733 66.5409 15.38C66.5809 15.8733 66.6143 16.4067 66.6409 16.98C66.6676 17.5533 66.6809 18.08 66.6809 18.56V25H63.6409V10.72H68.2409L71.4209 21.28H71.5009L74.7809 10.72H79.3609V25H76.2009V18.48C76.2009 18.0267 76.2076 17.5267 76.2209 16.98C76.2476 16.42 76.2676 15.8933 76.2809 15.4C76.3076 14.8933 76.3276 14.5067 76.3409 14.24H76.2609L72.9609 25H69.7609ZM91.063 25H82.723V10.72H91.063V13.48H86.123V16.22H90.703V18.98H86.123V22.2H91.063V25ZM105.637 25H101.757L98.4567 19.24L97.2367 20.04V25H93.8167V10.72H97.2367V17.1C97.4101 16.8067 97.5967 16.5133 97.7967 16.22C98.0101 15.9267 98.2167 15.64 98.4167 15.36L101.897 10.72H105.637L100.877 17.08L105.637 25ZM115.653 25H107.313V10.72H115.653V13.48H110.713V16.22H115.293V18.98H110.713V22.2H115.653V25ZM126.747 25H118.407V10.72H126.747V13.48H121.807V16.22H126.387V18.98H121.807V22.2H126.747V25ZM134.24 10.72C136.067 10.72 137.414 11.12 138.28 11.92C139.16 12.7067 139.6 13.8067 139.6 15.22C139.6 16.06 139.427 16.8533 139.08 17.6C138.734 18.3333 138.16 18.9333 137.36 19.4C136.56 19.8533 135.474 20.08 134.1 20.08H132.9V25H129.5V10.72H134.24ZM134.12 13.5H132.9V17.3H133.8C134.48 17.3 135.04 17.1467 135.48 16.84C135.934 16.5333 136.16 16.0267 136.16 15.32C136.16 14.7333 135.994 14.2867 135.66 13.98C135.327 13.66 134.814 13.5 134.12 13.5ZM150.438 25H142.098V10.72H150.438V13.48H145.498V16.22H150.078V18.98H145.498V22.2H150.438V25ZM157.592 10.72C161.432 10.72 163.352 12.14 163.352 14.98C163.352 15.9 163.105 16.6733 162.612 17.3C162.132 17.9267 161.525 18.42 160.792 18.78L164.972 25H161.152L157.932 19.64H156.592V25H153.192V10.72H157.592ZM157.452 13.4H156.592V16.98H157.452C158.265 16.98 158.872 16.8333 159.272 16.54C159.685 16.2333 159.892 15.7533 159.892 15.1C159.892 14.5267 159.698 14.1 159.312 13.82C158.925 13.54 158.305 13.4 157.452 13.4Z" fill="#334155"/>
<path d="M25.7344 6.32812H18C17.4175 6.32812 16.9453 5.85591 16.9453 5.27344C16.9453 2.36566 19.311 0 22.2188 0H29.9531C30.5356 0 31.0078 0.472219 31.0078 1.05469C31.0078 3.96246 28.6421 6.32812 25.7344 6.32812Z" fill="#FF6378"/>
<path d="M29.9531 0H22.2188C20.4955 0 18.9629 0.830953 18 2.11303V6.32812H25.7344C28.6421 6.32812 31.0078 3.96246 31.0078 1.05469C31.0078 0.472219 30.5356 0 29.9531 0Z" fill="#D0004F"/>
<path d="M18 36C17.8745 36 17.7491 35.9776 17.6297 35.9329L6.37966 31.7141C5.96798 31.5598 5.69531 31.1662 5.69531 30.7266V16.5234C5.69531 9.73863 11.2151 4.21875 18 4.21875C24.7848 4.21875 30.3047 9.73863 30.3047 16.5234V30.7266C30.3047 31.1662 30.0319 31.5598 29.6203 31.7141L18.3703 35.9329C18.2509 35.9776 18.1254 36 18 36Z" fill="#F9F9F9"/>
<path d="M18 4.21875V36C18.1254 36 18.2509 35.9776 18.3703 35.9329L29.6203 31.7141C30.0319 31.5598 30.3047 31.1662 30.3047 30.7266V16.5234C30.3047 9.73863 24.7848 4.21875 18 4.21875Z" fill="#EAF1FF"/>
<path d="M32.0625 22.2891L18 28.6172L3.9375 22.2891V18.0703L18 11.7422L32.0625 18.0703V22.2891Z" fill="#6B61B1"/>
<path d="M18 11.7422V28.6172L32.0625 22.2891V18.0703L18 11.7422Z" fill="#453D81"/>
<path d="M32.4953 17.1085L19.0547 11.0602V9.63281C19.0547 9.05034 18.5825 8.57812 18 8.57812C17.4175 8.57812 16.9453 9.05034 16.9453 9.63281V11.0602L3.50473 17.1085C3.12623 17.2788 2.88281 17.6553 2.88281 18.0703V22.2891C2.88281 22.704 3.12623 23.0806 3.50473 23.2509L17.5672 29.579C17.7048 29.6409 17.8524 29.6719 18 29.6719C18.1476 29.6719 18.2952 29.6409 18.4328 29.579L32.4953 23.2509C32.8738 23.0806 33.1172 22.704 33.1172 22.2891V18.0703C33.1172 17.6553 32.8738 17.2788 32.4953 17.1085V17.1085ZM7.57034 22.7673L4.99219 21.6071V18.7523L7.57034 17.5921V22.7673ZM12.2578 24.8766L9.67964 23.7165V16.6429L12.2578 15.4827V24.8766ZM16.9453 26.986L14.3672 25.8259V14.5335L16.9453 13.3734V26.986ZM21.6328 25.8259L19.0547 26.986V13.3734L21.6328 14.5335V25.8259ZM26.3203 23.7165L23.7421 24.8766V15.4827L26.3203 16.6429V23.7165ZM31.0078 21.6071L28.4297 22.7673V17.5921L31.0078 18.7523V21.6071Z" fill="#EAF1FF"/>
<path d="M32.4953 17.1085L19.0547 11.0602V9.63281C19.0547 9.05034 18.5825 8.57812 18 8.57812V29.6719C18.1476 29.6719 18.2952 29.6409 18.4328 29.579L32.4953 23.2509C32.8738 23.0806 33.1172 22.704 33.1172 22.2891V18.0703C33.1172 17.6553 32.8738 17.2788 32.4953 17.1085ZM21.6328 25.8259L19.0547 26.986V13.3734L21.6328 14.5335V25.8259ZM26.3203 23.7165L23.7421 24.8766V15.4827L26.3203 16.6429V23.7165ZM31.0078 21.6071L28.4297 22.7673V17.5921L31.0078 18.7523V21.6071Z" fill="#D5E7FF"/>
</svg>
