<svg width="36" height="36" viewBox="0 0 36 36" fill="none" xmlns="http://www.w3.org/2000/svg">
<path d="M25.7344 6.32812H18C17.4175 6.32812 16.9453 5.85591 16.9453 5.27344C16.9453 2.36566 19.311 0 22.2188 0H29.9531C30.5356 0 31.0078 0.472219 31.0078 1.05469C31.0078 3.96246 28.6421 6.32812 25.7344 6.32812Z" fill="#FF6378"/>
<path d="M29.9531 0H22.2188C20.4955 0 18.9629 0.830953 18 2.11303V6.32812H25.7344C28.6421 6.32812 31.0078 3.96246 31.0078 1.05469C31.0078 0.472219 30.5356 0 29.9531 0Z" fill="#D0004F"/>
<path d="M18 36C17.8745 36 17.7491 35.9776 17.6297 35.9329L6.37966 31.7141C5.96798 31.5598 5.69531 31.1662 5.69531 30.7266V16.5234C5.69531 9.73863 11.2151 4.21875 18 4.21875C24.7848 4.21875 30.3047 9.73863 30.3047 16.5234V30.7266C30.3047 31.1662 30.0319 31.5598 29.6203 31.7141L18.3703 35.9329C18.2509 35.9776 18.1254 36 18 36Z" fill="#F9F9F9"/>
<path d="M18 4.21875V36C18.1254 36 18.2509 35.9776 18.3703 35.9329L29.6203 31.7141C30.0319 31.5598 30.3047 31.1662 30.3047 30.7266V16.5234C30.3047 9.73863 24.7848 4.21875 18 4.21875Z" fill="#EAF1FF"/>
<path d="M32.0625 22.2891L18 28.6172L3.9375 22.2891V18.0703L18 11.7422L32.0625 18.0703V22.2891Z" fill="#6B61B1"/>
<path d="M18 11.7422V28.6172L32.0625 22.2891V18.0703L18 11.7422Z" fill="#453D81"/>
<path d="M32.4953 17.1085L19.0547 11.0602V9.63281C19.0547 9.05034 18.5825 8.57812 18 8.57812C17.4175 8.57812 16.9453 9.05034 16.9453 9.63281V11.0602L3.50473 17.1085C3.12623 17.2788 2.88281 17.6553 2.88281 18.0703V22.2891C2.88281 22.704 3.12623 23.0806 3.50473 23.2509L17.5672 29.579C17.7048 29.6409 17.8524 29.6719 18 29.6719C18.1476 29.6719 18.2952 29.6409 18.4328 29.579L32.4953 23.2509C32.8738 23.0806 33.1172 22.704 33.1172 22.2891V18.0703C33.1172 17.6553 32.8738 17.2788 32.4953 17.1085V17.1085ZM7.57034 22.7673L4.99219 21.6071V18.7523L7.57034 17.5921V22.7673ZM12.2578 24.8766L9.67964 23.7165V16.6429L12.2578 15.4827V24.8766ZM16.9453 26.986L14.3672 25.8259V14.5335L16.9453 13.3734V26.986ZM21.6328 25.8259L19.0547 26.986V13.3734L21.6328 14.5335V25.8259ZM26.3203 23.7165L23.7421 24.8766V15.4827L26.3203 16.6429V23.7165ZM31.0078 21.6071L28.4297 22.7673V17.5921L31.0078 18.7523V21.6071Z" fill="#EAF1FF"/>
<path d="M32.4953 17.1085L19.0547 11.0602V9.63281C19.0547 9.05034 18.5825 8.57812 18 8.57812V29.6719C18.1476 29.6719 18.2952 29.6409 18.4328 29.579L32.4953 23.2509C32.8738 23.0806 33.1172 22.704 33.1172 22.2891V18.0703C33.1172 17.6553 32.8738 17.2788 32.4953 17.1085ZM21.6328 25.8259L19.0547 26.986V13.3734L21.6328 14.5335V25.8259ZM26.3203 23.7165L23.7421 24.8766V15.4827L26.3203 16.6429V23.7165ZM31.0078 21.6071L28.4297 22.7673V17.5921L31.0078 18.7523V21.6071Z" fill="#D5E7FF"/>
</svg>
